nColumns=19
nRows=71
DataType=double
version=3
OpenSimVersion=4.1
endheader
time	ground_force_1_vx	ground_force_1_vy	ground_force_1_vz	ground_force_1_px	ground_force_1_py	ground_force_1_pz	ground_force_1_mx	ground_force_1_my	ground_force_1_mz	ground_force_2_vx	ground_force_2_vy	ground_force_2_vz	ground_force_2_px	ground_force_2_py	ground_force_2_pz	ground_force_2_mx	ground_force_2_my	ground_force_2_mz
0.2	-9.57555	21.0651	0.15917	1.05948	0	-0.419145	0	-0.254719	0	14.1575	41.0074	1.60747	0.661412	0	-0.551418	-0	0.997134	-0
0.21	-12.3233	63.104	-1.24885	1.06599	0	-0.434266	0	-0.7336	0	6.07628	24.2849	1.72196	0.686689	0	-0.544151	-0	0.780764	-0
0.22	-5.62916	161.493	-2.31268	1.05985	0	-0.435507	0	-1.12862	0	-0.506856	12.8245	1.32802	0.747381	0	-0.537682	-0	0.548465	-0
0.23	5.3808	333.609	-2.60268	1.05345	0	-0.43136	0	-1.19981	0	-2.41913	6.33336	0.306505	0.779837	0	-0.553456	-0	0.309306	-0
0.24	3.19651	541.777	-5.40474	1.04955	0	-0.427622	0	-0.742667	0	-0.136242	3.51869	-0.863458	-0.000648736	0	-1.64817e-05	0	0	0
0.25	-18.8359	711.829	-15.4915	1.04742	0	-0.426693	-0	0.269894	-0	1.8644	2.34716	-1.27419	-0.000648736	0	-1.64817e-05	0	0	0
0.26	-51.8899	817.687	-31.484	1.04564	0	-0.427738	-0	1.60973	-0	1.34379	1.329	-0.751224	-0.000648736	0	-1.64817e-05	0	0	0
0.27	-84.8891	893.162	-45.6744	1.04233	0	-0.427811	-0	2.87867	-0	0.730762	0.962691	-0.19238	-0.000648736	0	-1.64817e-05	0	0	0
0.28	-105.237	971.922	-53.8956	1.03547	0	-0.426742	-0	3.71531	-0	1.31344	1.47601	-0.156421	-0.000648736	0	-1.64817e-05	0	0	0
0.29	-107.763	1057.82	-57.9874	1.02451	0	-0.426728	-0	3.96532	-0	1.36619	2.04278	-0.348582	-0.000648736	0	-1.64817e-05	0	0	0
0.3	-97.944	1138.58	-59.2963	1.0113	0	-0.427128	-0	3.71752	-0	0.856596	1.76996	-0.699023	-0.000648736	0	-1.64817e-05	0	0	0
0.31	-83.9395	1200.99	-58.4857	0.997725	0	-0.426873	-0	3.22963	-0	1.24459	1.16235	-1.33961	-0.000648736	0	-1.64817e-05	0	0	0
0.32	-69.7989	1236.75	-57.9507	0.984421	0	-0.426756	-0	2.80009	-0	1.33083	1.08202	-1.76256	-0.000648736	0	-1.64817e-05	0	0	0
0.33	-56.3893	1246.41	-58.5523	0.971695	0	-0.426793	-0	2.63974	-0	0.286546	1.08655	-1.70168	-0.000648736	0	-1.64817e-05	0	0	0
0.34	-43.7695	1234.71	-58.9261	0.959743	0	-0.426154	-0	2.80092	-0	0.19616	1.06576	-1.65858	-0.000648736	0	-1.64817e-05	0	0	0
0.35	-31.439	1204	-58.9068	0.948254	0	-0.425318	-0	3.18301	-0	0.539498	1.59989	-1.62163	-0.000648736	0	-1.64817e-05	0	0	0
0.36	-18.3806	1157.3	-58.7436	0.936815	0	-0.424786	-0	3.58752	-0	-0.0876474	2.2809	-1.3546	-0.000648736	0	-1.64817e-05	0	0	0
0.37	-4.54582	1100.59	-57.2765	0.925282	0	-0.423973	-0	3.79819	-0	-0.0660398	2.20785	-1.27837	-0.000648736	0	-1.64817e-05	0	0	0
0.38	10.2521	1038.23	-53.8176	0.913405	0	-0.423012	-0	3.66507	-0	0.592016	1.54187	-1.39504	-0.000648736	0	-1.64817e-05	0	0	0
0.39	27.9406	972.481	-48.6407	0.90034	0	-0.422704	-0	3.16065	-0	0.439734	0.812105	-1.16778	-0.000648736	0	-1.64817e-05	0	0	0
0.4	48.336	905.412	-41.5485	0.885489	0	-0.422777	-0	2.38856	-0	0.0574793	0.312493	-0.641994	-0.000648736	0	-1.64817e-05	0	0	0
0.41	67.9953	835.935	-33.1523	0.869258	0	-0.422635	-0	1.5468	-0	-0.0317133	0.0863159	-0.225433	-0.000648736	0	-1.64817e-05	0	0	0
0.42	84.0205	760.129	-25.7385	0.852265	0	-0.422828	-0	0.853498	-0	-0.0146263	0.0173797	-0.0407637	-0.000648736	0	-1.64817e-05	0	0	0
0.43	94.3933	677.623	-20.5014	0.835104	0	-0.42357	-0	0.460938	-0	-0.00293267	0.00335523	0.0148003	-0.000648736	0	-1.64817e-05	0	0	0
0.44	97.4315	592.119	-16.7313	0.818488	0	-0.423884	-0	0.403682	-0	0.00123628	0.00573471	0.0437739	-0.000648736	0	-1.64817e-05	0	0	0
0.45	94.5727	506.206	-14.1444	0.802009	0	-0.423654	-0	0.603266	-0	0.00946542	0.0312061	0.0976188	-0.000648736	0	-1.64817e-05	0	0	0
0.46	88.0372	421.65	-12.7331	0.78508	0	-0.423679	-0	0.913966	-0	0.0351029	0.125586	0.193634	-0.000648736	0	-1.64817e-05	0	0	0
0.47	78.2866	341.584	-11.4339	0.769363	0	-0.42315	-0	1.18711	-0	0.0655345	0.325069	0.317131	-0.000648736	0	-1.64817e-05	0	0	0
0.48	65.6883	269.322	-9.61947	0.756548	0	-0.420929	-0	1.33119	-0	-0.0078748	0.581054	0.438698	-0.000648736	0	-1.64817e-05	0	0	0
0.49	52.5106	206.31	-8.03531	0.745872	0	-0.418307	-0	1.33767	-0	-0.293429	0.988948	0.557589	-0.000648736	0	-1.64817e-05	0	0	0
0.5	41.4183	151.952	-7.09041	0.736559	0	-0.415829	-0	1.26147	-0	-0.617447	1.48232	0.665672	-0.000648736	0	-1.64817e-05	0	0	0
0.51	32.8031	106.433	-6.453	0.728758	0	-0.411342	-0	1.17737	-0	-0.591004	1.43102	0.678625	-0.000648736	0	-1.64817e-05	0	0	0
0.52	25.0828	71.3349	-6.11421	0.719992	0	-0.404393	-0	1.13833	-0	-0.31873	0.8632	0.548636	-0.000648736	0	-1.64817e-05	0	0	0
0.53	17.1944	46.2499	-6.0447	0.708068	0	-0.396605	-0	1.14992	-0	-0.295081	0.536494	0.399684	-0.000648736	0	-1.64817e-05	0	0	0
0.54	9.54561	28.545	-5.65579	0.696696	0	-0.387068	-0	1.16996	-0	-1.07399	1.30659	0.467759	-0.000648736	0	-1.64817e-05	0	0	0
0.55	3.17424	16.3137	-4.57777	0.68001	0	-0.372366	-0	1.13198	-0	-3.88276	4.898	1.02401	-0.000648736	0	-1.64817e-05	0	0	0
0.56	-0.596723	8.49478	-3.13012	0.645217	0	-0.350699	-0	0.976795	-0	-10.432	15.9804	2.29309	1.16851	0	-0.537342	-0	1.0692	-0
0.57	-1.6185	3.7718	-1.69093	-0.000648736	0	-1.64817e-05	0	0	0	-19.9806	47.785	4.18368	1.13865	0	-0.541922	-0	1.49238	-0
0.58	-1.30959	1.31711	-0.385313	-0.000648736	0	-1.64817e-05	0	0	0	-25.7694	130.458	5.94237	1.11227	0	-0.55034	-0	2.04609	-0
0.59	-0.888808	0.643783	0.712983	-0.000648736	0	-1.64817e-05	0	0	0	-21.1809	296.755	6.40273	1.09546	0	-0.555948	-0	2.65514	-0
0.6	-0.565468	0.889887	1.66476	-0.000648736	0	-1.64817e-05	0	0	0	-14.7859	530.089	5.73855	1.08371	0	-0.558973	-0	3.13653	-0
0.61	-0.655527	1.3858	2.43691	-0.000648736	0	-1.64817e-05	0	0	0	-25.0157	750.305	7.07601	1.0769	0	-0.560803	-0	3.24549	-0
0.62	-1.03387	1.60727	2.54943	-0.000648736	0	-1.64817e-05	0	0	0	-53.3899	891.711	14.379	1.07435	0	-0.562823	-0	2.79384	-0
0.63	-1.18181	1.14828	1.95324	-0.000648736	0	-1.64817e-05	0	0	0	-83.8465	961.915	28.6229	1.07324	0	-0.566062	-0	1.77632	-0
0.64	-1.36598	0.731249	1.57292	-0.000648736	0	-1.64817e-05	0	0	0	-103.989	1009.29	46.9039	1.07061	0	-0.570388	-0	0.414071	-0
0.65	-1.56718	0.737374	1.85036	-0.000648736	0	-1.64817e-05	0	0	0	-112.234	1063.19	64.2787	1.06454	0	-0.574703	0	-0.925935	0
0.66	-1.082	0.645998	2.07315	-0.000648736	0	-1.64817e-05	0	0	0	-111.742	1119.49	77.3035	1.05508	0	-0.578347	0	-1.88947	0
0.67	-0.537055	0.278664	1.7394	-0.000648736	0	-1.64817e-05	0	0	0	-104.181	1164.82	86.0491	1.04396	0	-0.581275	0	-2.27243	0
0.68	-0.396355	-0.0355459	1.13609	-0.000648736	0	-1.64817e-05	0	0	0	-91.767	1191.8	91.762	1.0319	0	-0.583821	0	-2.06534	0
0.69	-0.266347	-0.0992863	0.634708	-0.000648736	0	-1.64817e-05	0	0	0	-77.8991	1199.78	94.938	1.01921	0	-0.586256	0	-1.40939	0
0.7	-0.102532	-0.0366774	0.341276	-0.000648736	0	-1.64817e-05	0	0	0	-64.4855	1193.04	95.6624	1.00657	0	-0.588456	0	-0.513123	0
0.71	-0.0149055	0.0324217	0.218755	-0.000648736	0	-1.64817e-05	0	0	0	-49.8969	1175.2	93.9018	0.993664	0	-0.590383	-0	0.425447	-0
0.72	0.0192177	0.0964525	0.187719	-0.000648736	0	-1.64817e-05	0	0	0	-33.9667	1147.15	90.1052	0.980206	0	-0.592103	-0	1.26815	-0
0.73	0.0256633	0.109648	0.170537	-0.000648736	0	-1.64817e-05	0	0	0	-18.4524	1108.6	85.0312	0.966807	0	-0.593532	-0	1.95304	-0
0.74	0.0142217	0.0612633	0.140981	-0.000648736	0	-1.64817e-05	0	0	0	-3.50032	1060.64	78.7166	0.953565	0	-0.594579	-0	2.48127	-0
0.75	0.00290734	0.0237155	0.135842	-0.000648736	0	-1.64817e-05	0	0	0	11.3012	1006.86	70.8722	0.940148	0	-0.595139	-0	2.88276	-0
0.76	-0.00862775	0.0320587	0.216538	-0.000648736	0	-1.64817e-05	0	0	0	26.6425	950.167	61.8545	0.9262	0	-0.595117	-0	3.18034	-0
0.77	-0.0416972	0.106237	0.43209	-0.000648736	0	-1.64817e-05	0	0	0	42.4041	890.033	52.5109	0.911546	0	-0.594607	-0	3.37258	-0
0.78	-0.117125	0.213518	0.773913	-0.000648736	0	-1.64817e-05	0	0	0	57.1784	824.762	43.6797	0.896319	0	-0.593915	-0	3.44132	-0
0.79	-0.195402	0.153644	1.14438	-0.000648736	0	-1.64817e-05	0	0	0	68.7831	753.762	35.959	0.880715	0	-0.593238	-0	3.37344	-0
0.8	-0.247385	-0.0547367	1.45023	-0.000648736	0	-1.64817e-05	0	0	0	76.2286	677.534	29.4386	0.864566	0	-0.592561	-0	3.18081	-0
0.81	-0.406747	-0.171313	1.69554	-0.000648736	0	-1.64817e-05	0	0	0	80.1312	598.001	23.8285	0.847684	0	-0.591959	-0	2.90591	-0
0.82	-0.651917	-0.143756	1.82649	-0.000648736	0	-1.64817e-05	0	0	0	80.6912	517.615	18.8532	0.831006	0	-0.591462	-0	2.61085	-0
0.83	-0.70999	0.119996	1.69328	-0.000648736	0	-1.64817e-05	0	0	0	78.1462	438.737	14.2951	0.81562	0	-0.59109	-0	2.35672	-0
0.84	-0.612225	0.478899	1.32244	-0.000648736	0	-1.64817e-05	0	0	0	72.196	364.603	10.0175	0.802173	0	-0.590917	-0	2.1831	-0
0.85	-0.535086	0.731424	0.90303	-0.000648736	0	-1.64817e-05	0	0	0	63.3191	298.842	6.00867	0.789984	0	-0.590833	-0	2.09567	-0
0.86	-0.404611	0.742356	0.533073	-0.000648736	0	-1.64817e-05	0	0	0	54.1735	242.761	2.45466	0.777191	0	-0.590728	-0	2.06584	-0
0.87	-0.245173	0.657314	0.227425	-0.000648736	0	-1.64817e-05	0	0	0	46.5249	195.171	-0.275047	0.764121	0	-0.59039	-0	2.04208	-0
0.88	-0.141318	0.538788	0.0235989	-0.000648736	0	-1.64817e-05	0	0	0	39.9781	154.705	-2.00765	0.750094	0	-0.589652	-0	1.96834	-0
0.89	-0.0667838	0.291637	-0.067189	-0.000648736	0	-1.64817e-05	0	0	0	33.5717	120.939	-2.68107	0.734998	0	-0.58868	-0	1.80235	-0
0.9	-0.0335631	0.112415	-0.113199	-0.000648736	0	-1.64817e-05	0	0	0	26.8549	93.2671	-2.20926	0.727173	0	-0.586943	-0	1.529	-0
